# xmcd CD database file
#
# Track frame offsets:
#	150
#	26227
#	48702
#	63627
#	78320
#	94490
#	108795
#	133075
#	152217
#	169852
#	193252
#	208167
#	225842
#	246680
#	264082
#
# Disc length: 3775 seconds
#
# Revision: 4
# Processed by: cddbd v1.5.2PL0 Copyright (c) Steve Scherf et al.
# Submitted via: CDex 1.83
#
DISCID=da0ebd0f
DTITLE=Charlie Daniels Band - The Roots Remain  [CD2  Now)
DYEAR=1996
DGENRE=Country
TTITLE0=Billy The Kid (1976 High Lonesome)
TTITLE1=High Lonesome (1976 High Lonesome)
TTITLE2=Midnight Wind (1977 Midnight Wind)
TTITLE3=Passing Lane (1979 Million Mile Reflections)
TTITLE4=The Devil Went Down To Georgia (1979 Million Mile Reflections)
TTITLE5=Mississippi (1979 Million Mile Reflections)
TTITLE6=Reflections (1979 Million Mile Reflections)
TTITLE7=The Legend Of Wooley Swamp (1980 Full Moon)
TTITLE8=Money (1980 Full Moon)
TTITLE9=Carolina (I Remember You) (1980 Full Moon)
TTITLE10=In America (1980 Full Moon)
TTITLE11=Ain't No Ramblers Anymore (1982 Windows)
TTITLE12=We Had It All One Time (1982 Windows)
TTITLE13=Still In Saigon (1982 Windows)
TTITLE14=Running With That Crowd (1985 ''B'' Side American Farmer)
EXTD=YEAR: 1996
EXTT0=
EXTT1=
EXTT2=
EXTT3=
EXTT4=
EXTT5=
EXTT6=
EXTT7=
EXTT8=
EXTT9=
EXTT10=
EXTT11=
EXTT12=
EXTT13=
EXTT14=
PLAYORDER=
